<svg xmlns="http://www.w3.org/2000/svg" xmlns:xlink="http://www.w3.org/1999/xlink" fill="none" version="1.1" width="136.97659301757812" height="149" viewBox="0 0 136.97659301757812 149"><defs><radialGradient cx="0" cy="0" r="1" gradientUnits="userSpaceOnUse" id="master_svg0__33" gradientTransform="translate(17.73028922121489 37.25203838944435) rotate(4.081115189042478) scale(114.23365218989842 104.46840935277092)"><stop offset="0%" stop-color="#F065E2" stop-opacity="1"/><stop offset="100%" stop-color="#3748FA" stop-opacity="1"/></radialGradient><linearGradient x1="-0.19496527314186096" y1="0.39207959175109863" x2="0.43304537629286255" y2="0.863573641378346" id="master_svg1__34"><stop offset="0%" stop-color="#FFFFFF" stop-opacity="0.29535040259361267"/><stop offset="100%" stop-color="#FFFFFF" stop-opacity="0.00009999999747378752"/></linearGradient><filter id="master_svg2_17_7" filterUnits="objectBoundingBox" color-interpolation-filters="sRGB" x="0" y="0" width="1" height="1"><feFlood flood-opacity="0" result="BackgroundImageFix"/><feBlend mode="normal" in="SourceGraphic" in2="BackgroundImageFix" result="shape"/><feGaussianBlur in="BackgroundImageFix" stdDeviation="6.795704364776611"/><feComposite in2="SourceAlpha" operator="in" result="effect1_foregroundBlur"/><feBlend mode="normal" in="SourceGraphic" in2="effect1_foregroundBlur" result="shape"/></filter><radialGradient cx="0" cy="0" r="1" gradientUnits="userSpaceOnUse" id="master_svg3__37" gradientTransform="translate(10.193236422746168 50.224760711193085) rotate(59.78536228776138) scale(106.76288998614345 126.99533770374973)"><stop offset="0%" stop-color="#FFFFFF" stop-opacity="0.8015930652618408"/><stop offset="100%" stop-color="#5B72F6" stop-opacity="0.24906952679157257"/></radialGradient><radialGradient cx="0" cy="0" r="1" gradientUnits="userSpaceOnUse" id="master_svg4__38" gradientTransform="translate(13.212571274901848 53.28203347325325) rotate(65.16397623977268) scale(63.36946778729545 69.6764269743661)"><stop offset="0%" stop-color="#FFFFFF" stop-opacity="0.9734108448028564"/><stop offset="100%" stop-color="#FFFFFF" stop-opacity="0.00009999999747378752"/></radialGradient></defs><g><g><path d="M7.856056185253906,43.038399999999996C7.256013385253906,33.81276,14.577152385253907,26,23.822332385253905,26C23.822332385253905,26,115.67363238525391,26,115.67363238525391,26C124.9186323852539,26,132.2396323852539,33.812780000000004,131.6396323852539,43.0385C131.6396323852539,43.0385,125.72063238525391,134.038,125.72063238525391,134.038C125.17363238525391,142.454,118.1876323852539,149,109.75463238525391,149C109.75463238525391,149,29.741032385253906,149,29.741032385253906,149C21.307532385253907,149,14.322112385253906,142.454,13.774752385253906,134.038C13.774752385253906,134.038,7.856056185253906,43.038399999999996,7.856056185253906,43.038399999999996C7.856056185253906,43.038399999999996,7.856056185253906,43.038399999999996,7.856056185253906,43.038399999999996Z" fill-rule="evenodd" fill="url(#master_svg0__33)" fill-opacity="1"/><path d="M7.856056185253906,43.038399999999996C7.256013385253906,33.81276,14.577152385253907,26,23.822332385253905,26L115.67363238525391,26C124.9186323852539,26,132.2396323852539,33.812780000000004,131.6396323852539,43.0385L125.72063238525391,134.038C125.17363238525391,142.454,118.1876323852539,149,109.75463238525391,149L29.741032385253906,149C21.307532385253907,149,14.322112385253906,142.454,13.774752385253906,134.038L7.856056185253906,43.038399999999996ZM8.853952385253907,42.9735L14.772642385253906,133.973Q15.157502385253906,139.89100000000002,19.484432385253907,143.945Q23.811232385253906,148,29.741032385253906,148L109.75463238525391,148Q115.6846323852539,148,120.0116323852539,143.945Q124.3386323852539,139.89100000000002,124.7226323852539,133.973L130.6416323852539,42.973600000000005Q131.06363238525392,36.4868,126.6186323852539,31.74337Q122.1746323852539,27,115.67363238525391,27L23.822332385253905,27Q17.321832385253906,27,12.876932385253905,31.74336Q8.432042385253906,36.4867,8.853952385253907,42.9735Z" fill-rule="evenodd" fill="url(#master_svg1__34)" fill-opacity="1"/></g><g><path d="M30.301767584228514,12.156C32.06906758422852,5.01551,38.47716758422851,0,45.83316758422852,0C45.83316758422852,0,122.74786758422852,0,122.74786758422852,0C122.74786758422852,0,104.18536758422852,75,104.18536758422852,75C104.18536758422852,75,14.747867584228516,75,14.747867584228516,75C14.747867584228516,75,30.301767584228514,12.156,30.301767584228514,12.156C30.301767584228514,12.156,30.301767584228514,12.156,30.301767584228514,12.156Z" fill-rule="evenodd" fill="#FFFFFF" fill-opacity="1"/></g><g><path d="M50.397045599365235,18C50.397045599365235,18,102.39699559936523,18,102.39699559936523,18C102.39699559936523,18,99.75939559936523,28,99.75939559936523,28C99.75939559936523,28,47.759395599365234,28,47.759395599365234,28C47.759395599365234,28,50.397045599365235,18,50.397045599365235,18C50.397045599365235,18,50.397045599365235,18,50.397045599365235,18Z" fill-rule="evenodd" fill="#FFDAFE" fill-opacity="1"/></g><g><path d="M45.385517584228516,37C45.385517584228516,37,80.38546758422851,37,80.38546758422851,37C80.38546758422851,37,77.74786758422852,47,77.74786758422852,47C77.74786758422852,47,42.747867584228516,47,42.747867584228516,47C42.747867584228516,47,45.385517584228516,37,45.385517584228516,37C45.385517584228516,37,45.385517584228516,37,45.385517584228516,37Z" fill-rule="evenodd" fill="#FFDAFE" fill-opacity="1"/></g><g filter="url(#master_svg2_17_7)"><path d="M0.046289,60.2041C-0.654431,50.91952,6.68992,43,16.0009,43C16.0009,43,26.7479,43,26.7479,43C26.7479,43,47.7951,43,47.7951,43C52.23,43,56.4659,44.84075,59.4919,48.08291C59.4919,48.08291,78.0039,67.9171,78.0039,67.9171C81.0299,71.1593,85.2658,73,89.7007,73C89.7007,73,110.748,73,110.748,73C110.748,73,120.975,73,120.975,73C130.475,73,137.882,81.2279,136.887,90.675C136.887,90.675,132.256,134.675,132.256,134.675C131.399,142.81810000000002,124.532,149,116.344,149C116.344,149,21.5859,149,21.5859,149C13.2164,149,6.26107,142.54989999999998,5.6312,134.20409999999998C5.6312,134.20409999999998,0.046289,60.2041,0.046289,60.2041C0.046289,60.2041,0.046289,60.2041,0.046289,60.2041Z" fill-rule="evenodd" fill="url(#master_svg3__37)" fill-opacity="1"/><path d="M0.046289,60.2041C-0.654431,50.91952,6.68992,43,16.0009,43L47.7951,43C52.23,43,56.4659,44.84075,59.4919,48.08291L78.0039,67.9171C81.0299,71.1593,85.2658,73,89.7007,73L120.975,73C130.475,73,137.882,81.2279,136.887,90.675L132.256,134.675C131.399,142.81810000000002,124.532,149,116.344,149L21.5859,149C13.2164,149,6.26107,142.54989999999998,5.6312,134.20409999999998L0.046289,60.2041ZM1.04345,60.1288L6.62836,134.1288Q7.07124,139.99689999999998,11.3862,143.998Q15.701,148,21.5859,148L116.344,148Q122.101,148,126.38,144.148Q130.659,140.29590000000002,131.261,134.5703L135.892,90.5703Q136.592,83.92779999999999,132.123,78.9639Q127.655,74,120.975,74L89.7007,74Q82.3133,74,77.2728,68.5994L58.7608,48.76523Q54.3133,44,47.7951,44L16.0009,44Q9.45411,44,5.00244,48.800309999999996Q0.55076,53.6006,1.04345,60.1288Z" fill-rule="evenodd" fill="url(#master_svg4__38)" fill-opacity="1"/></g><g><rect x="13.747867584228516" y="57" width="38" height="10" rx="5" fill="#FFFFFF" fill-opacity="1"/></g></g></svg>