<svg xmlns="http://www.w3.org/2000/svg" xmlns:xlink="http://www.w3.org/1999/xlink" fill="none" version="1.1" width="520" height="67.86711120605469" viewBox="0 0 520 67.86711120605469"><g><g><g><path d="M4.04354,61.7243Q3.34411,61.0249,2.9944,60.0632Q2.73212,59.1015,1.59555,58.4895Q1.4207,57.178,1.07099,55.5169Q0.808704,53.7683,0.458984,52.0198Q0.196705,50.1838,0.0218544,48.4352Q-0.0655661,46.5992,0.196705,45.1129Q0.371565,44.3261,0.721275,43.6267Q1.15841,42.9272,1.50813,42.3152Q1.94526,41.6158,2.12012,40.9164Q2.38241,40.2169,2.20755,39.5175Q2.73211,39.4301,2.81955,38.993Q2.9944,38.4684,3.69382,38.6432Q4.30582,36.7198,5.00525,35.0587Q5.70467,33.3976,6.49152,31.8239Q7.27839,30.2501,8.06524,28.6764Q8.9395,27.0153,9.63894,25.0044Q8.15265,23.6056,7.45324,22.0319Q6.84124,20.3707,6.49152,18.7096Q6.14181,17.0485,5.96696,15.3873Q5.7921,13.6388,5.26754,11.8902Q6.31667,10.3165,7.80295,9.3548Q9.28923,8.30566,11.0378,7.69366Q12.8738,6.99423,14.9721,6.64453Q17.0703,6.2074,19.4309,5.68283Q23.6274,4.3714,26.9497,3.67197Q30.272,2.88513,33.4194,2.448Q36.5668,1.92343,39.9765,1.5737Q43.3862,1.13657,47.8451,0.349701Q47.9325,0.612,48.1073,0.612Q48.3696,0.612,48.7193,0.612Q48.9816,1.224,49.681,1.224Q49.681,0.961731,49.5936,0.786865Q49.5936,0.524567,49.5936,0.349731Q49.7685,0.349731,50.0308,0.437164Q50.3805,0.524597,50.5553,0.612Q50.8176,0.699432,50.9925,0.612Q51.1673,0.437164,51.0799,0Q52.129,1.836,53.7902,3.05997Q55.4513,4.19653,57.4622,5.07083Q57.5496,5.85767,57.4622,6.2074Q57.4622,6.5571,57.3748,6.90683Q57.2873,7.16913,57.2873,7.60626Q57.2873,7.95596,57.4622,8.6554Q56.0633,11.016,54.2274,12.3274Q52.4788,13.6388,50.4679,14.3383Q48.4571,15.0377,46.184,15.3874Q43.9983,15.7371,41.6377,16.1743Q39.3646,16.524,37.004,17.2234Q34.6434,17.9228,32.3703,19.3217Q31.6709,19.0594,31.0589,19.1468Q30.5343,19.1468,29.9223,19.3217Q29.3103,19.4965,28.5235,19.6714Q27.824,19.8462,26.7749,19.6714Q26.0755,20.2834,25.1138,20.5457Q24.2395,20.808,23.2778,21.0702Q23.7149,22.0319,23.6275,22.9936Q23.6275,23.9553,23.8898,24.6548Q27.5618,25.0045,32.0206,24.6548Q36.4794,24.2176,40.7634,24.0428Q40.8508,24.4799,40.676,24.6548Q40.5011,24.8296,40.5011,25.2668Q41.288,25.7913,41.9874,26.5782Q42.6868,27.3651,43.3863,28.1519Q44.1731,28.8513,44.96,29.3759Q45.7468,29.813,46.796,29.7256Q47.2331,30.5999,47.408,31.5616Q47.5828,32.5233,47.1457,33.5724Q45.3971,34.709,43.736,35.933Q42.0748,37.0695,40.2389,38.0312Q38.4903,38.993,36.392,39.6049Q34.2937,40.2169,31.8457,40.1295Q31.4086,40.1295,31.0589,40.1295Q30.7966,40.1295,30.3595,39.7798Q29.4852,40.2169,27.9989,40.1295Q26.6001,39.9547,25.6383,40.3918Q24.4144,39.9547,22.7532,39.9547Q21.1795,39.9547,19.9555,39.5175Q18.3818,41.7906,16.9829,44.326Q15.5841,46.774,14.535,49.5717Q18.1195,50.0963,20.4801,50.0089Q22.8406,49.9215,24.9389,49.6592Q27.0372,49.3969,29.2229,49.1346Q31.496,48.8723,34.7309,48.9598Q36.9166,47.9107,39.7143,47.5609Q42.5994,47.1238,45.0474,46.3369Q45.9217,46.5992,46.5337,47.3861Q47.1457,48.0855,47.6702,48.8723Q48.2822,49.5718,48.8942,50.0963Q49.5062,50.6209,50.4679,50.446Q50.9051,50.8832,50.9925,51.4952Q51.1674,52.1072,51.2548,52.6317Q51.4297,53.1563,51.6919,53.506Q51.9542,53.7683,52.6536,53.6809Q50.9925,57.0906,48.8942,58.9266Q46.8834,60.7626,44.2605,61.8117Q41.7251,62.7734,38.4903,63.298Q35.3429,63.7351,31.4086,64.4345Q30.4469,64.6094,29.7475,64.4345Q29.1355,64.1722,28.436,64.1722Q25.988,64.6094,22.5784,65.0465Q19.2561,65.4837,15.8464,65.3962Q12.4367,65.3088,9.28926,64.5219Q6.14185,63.7351,4.04354,61.7243Z" fill="#FAF9F9" fill-opacity="1" style="mix-blend-mode:passthrough"/></g><g><path d="M94.45399692993163,10.49139404296875Q98.12599692993163,10.92852804296875,101.01109692993164,11.97766404296875Q103.89619692993165,13.02679404296875,105.90709692993164,14.77536404296875Q107.30589692993163,16.96106404296875,108.52989692993164,19.49649404296875Q109.84129692993164,22.03189404296875,110.45329692993164,24.82959404296875Q111.15279692993164,27.53989404296875,111.06539692993164,30.42499404296875Q111.06539692993164,33.31009404296875,109.84129692993164,36.28269404296875Q107.30589692993163,39.43009404296875,103.63389692993164,41.440994042968754Q100.04939692993165,43.36439404296875,95.85279692993164,44.58839404296875Q91.65629692993164,45.81239404296875,87.10999692993164,46.68669404296875Q82.65119692993164,47.56089404296875,78.36719692993164,48.43519404296875Q78.45459692993164,50.44609404296875,78.36719692993164,52.71919404296875Q78.36719692993164,54.90489404296875,77.93009692993164,57.17799404296875Q77.58039692993164,59.36379404296875,76.79349692993164,61.46199404296875Q76.00659692993165,63.56029404296875,74.69519692993164,65.30889404296875Q73.20892692993164,65.30889404296875,71.63522692993163,65.65859404296876Q70.06151692993164,66.09569404296874,68.83752692993164,66.35799404296876Q68.22552692993165,66.00829404296874,67.70096692993164,65.65859404296876Q67.26381692993164,65.39629404296875,66.38954692993164,65.30889404296875Q66.56439692993165,64.43459404296874,65.95240692993164,63.56029404296875Q65.34040692993165,62.59859404296875,64.72840492993164,61.63689404296875Q64.11640592993164,60.67509404296875,63.85412212993164,59.80089404296875Q63.67926402993164,58.92659404296875,64.72840492993164,58.13969404296875Q64.11640592993164,57.52769404296875,64.11640592993164,56.56599404296875Q64.72840492993164,55.51689404296875,65.16554692993164,53.68089404296875Q65.69011692993163,51.84489404296875,65.95240692993164,50.09629404296875Q66.30211692993164,48.26039404296875,66.12725692993165,46.77409404296875Q65.95240692993164,45.28779404296875,64.37869692993164,44.58839404296875Q64.46610592993164,44.41349404296875,64.72840492993164,44.41349404296875Q64.99069692993164,44.41349404296875,65.25298692993164,44.32609404296875Q64.55355492993164,43.80159404296875,64.37869692993164,42.83979404296875Q64.29127892993164,41.878094042968755,63.76669692993164,41.17869404296875Q63.94155492993164,40.74159404296875,64.02897992993164,40.39189404296875Q64.11639792993164,40.04209404296875,64.64097992993165,40.12959404296875Q64.37869692993164,38.555894042968745,64.64097992993165,37.15699404296875Q64.99069692993164,35.75809404296875,65.60270692993164,34.534094042968746Q66.21469692993163,33.222694042968755,67.08896692993164,31.99869404296875Q67.96325692993165,30.77469404296875,68.75010692993165,29.55069404296875Q69.36210692993164,29.46329404296875,69.44954692993164,29.72559404296875Q69.62439692993163,29.98789404296875,70.06153692993163,29.63809404296875Q71.19810692993164,28.76389404296875,71.63524692993164,27.80209404296875Q72.07238692993164,26.84039404296875,72.07238692993164,25.61639404296875Q72.68438692993163,23.78039404296875,73.55864692993164,21.94439404296875Q74.43289692993164,20.021024042968747,75.48209692993164,18.44729404296875Q76.53119692993164,16.87359404296875,77.75519692993164,15.64959404296875Q79.06659692993163,14.42559404296875,80.46549692993165,13.81359404296875Q81.51459692993164,12.93930404296875,83.08839692993163,12.23986404296875Q84.66209692993164,11.45300304296875,86.49799692993165,11.10330204296875Q88.33399692993164,10.66616804296875,90.16999692993164,10.66616804296875Q92.09339692993164,10.57873534296875,93.66719692993163,11.01586904296875Q94.10429692993164,11.19070404296875,94.10429692993164,10.84100304296875Q94.19169692993164,10.49130249026875,94.45399692993163,10.49139404296875ZM90.86939692993164,31.38669404296875Q93.05509692993164,30.42499404296875,95.50309692993164,29.90039404296875Q98.03849692993164,29.28839404296875,99.69969692993163,27.71469404296875Q98.65049692993165,26.75299404296875,96.63969692993163,26.05359404296875Q94.62879692993164,25.26669404296875,92.26829692993164,25.09189404296875Q89.90769692993163,24.91699404296875,87.45969692993164,25.528994042968748Q85.09919692993164,26.05359404296875,83.35059692993164,27.62729404296875Q82.82599692993165,29.20099404296875,82.47629692993164,30.16269404296875Q82.12659692993164,31.03699404296875,81.51459692993164,32.34839404296875Q81.68949692993164,32.785594042968754,82.03919692993165,33.04789404296875Q82.47629692993164,33.222694042968755,82.65119692993164,33.65989404296875Q84.66199692993163,32.610694042968746,86.67289692993164,32.52329404296875Q88.77109692993164,32.34839404296875,90.86939692993164,31.38669404296875Z" fill="#FAF9F9" fill-opacity="1" style="mix-blend-mode:passthrough"/></g><g><path d="M159.5102569580078,56.21635556640625Q159.6851569580078,58.48945556640625,158.9857569580078,59.97575556640625Q158.28635695800781,61.46205556640625,157.0623569580078,62.51115556640625Q155.8383569580078,63.56025556640625,154.2646569580078,64.17225556640625Q152.69085695800783,64.78425556640624,151.2046569580078,65.30885556640625Q150.5051569580078,64.87165556640625,149.8057569580078,64.43455556640626Q149.1937569580078,63.91005556640625,148.3194569580078,63.64775556640625Q147.18295695800782,61.54945556640625,146.1337569580078,59.97575556640625Q145.08465695800783,58.31465556640625,145.1720569580078,56.21635556640625Q145.1720569580078,56.12895556640625,145.2594569580078,55.25465556640625Q145.4343569580078,54.38035556640625,145.60925695800782,53.33125556640625Q145.8714569580078,52.28205556640625,145.9589569580078,51.40785556640625Q146.1337569580078,50.44615556640625,146.1337569580078,50.35865556640625Q144.12295695800782,50.53355556640625,141.93725695800782,51.23295556640625Q139.75155695800782,51.93235556640625,137.6532569580078,52.89405556640625Q135.6423569580078,53.85575556640625,133.80635695800783,54.81745556640625Q132.05785695800782,55.77915556640625,130.9212569580078,56.47865556640625Q130.9212569580078,56.74095556640625,130.57155695800782,57.79005556640625Q130.2218569580078,58.75175556640625,129.6972569580078,59.88835556640625Q129.17265695800782,60.93745556640625,128.5607569580078,61.81175556640625Q127.9487569580078,62.68605556640625,127.33675695800781,62.68605556640625Q127.42415695800781,62.94835556640625,127.59895695800782,63.21055556640625Q127.77385695800781,63.47285556640625,127.59895695800782,63.91005556640625Q126.37505695800782,64.25975556640626,125.4132569580078,64.78425556640624Q124.45155695800781,65.39625556640625,123.40242695800781,65.74595556640625Q122.35329695800782,66.18315556640624,121.12930695800782,66.18315556640624Q119.90530695800781,66.18315556640624,118.24416695800781,65.30885556640625Q118.24416695800781,64.78425556640624,117.80702695800781,64.43455556640626Q117.36987695800781,63.99745556640625,116.84531695800781,63.73515556640625Q116.40817695800781,63.38545556640625,116.05846695800781,63.21055556640625Q115.70874695800781,62.94825556640625,115.70874695800781,62.77345556640625Q115.27161695800781,62.86085556640625,115.3590369580078,62.16145556640625Q115.44644695800781,61.46205556640625,116.05846695800781,61.81175556640625Q115.09674695800781,60.58775556640625,114.83447995800782,59.71345556640625Q114.65962195800782,58.75175556640625,113.87275695800781,57.35285556640625Q114.04760695800782,57.17805556640625,114.22248095800781,56.74095556640625Q114.30989095800781,56.30375556640625,114.39733095800781,55.95405556640625Q114.48474095800782,55.60435556640625,114.65962195800782,55.42945556640625Q114.83447995800782,55.25465556640625,115.09675695800782,55.51695556640625Q114.92190695800781,54.73005556640625,115.09675695800782,54.20545556640625Q115.27162695800781,53.68095556640625,115.4464769580078,53.24375556640625Q115.62133695800782,52.80665556640625,115.70876695800781,52.36955556640625Q115.7961769580078,51.93235556640625,115.4464769580078,51.40785556640625Q116.84532695800782,49.48435556640625,117.2824769580078,47.29865556640625Q117.71961695800782,45.02555556640625,117.80703695800781,43.18955556640625Q118.41904695800781,42.57755556640625,118.85617695800781,41.440955566406245Q119.38074695800782,40.30445556640625,119.64302695800781,39.167855566406246Q119.90530695800781,37.94385556640625,119.81789695800781,36.894755566406246Q119.81789695800781,35.758155566406245,119.55560695800781,35.05875556640625Q119.64302695800781,34.62155556640625,120.51732695800781,34.79645556640625Q121.04189695800781,31.91135556640625,121.21674695800782,28.32675556640625Q121.47902695800781,24.65475556640625,122.00359695800782,21.41995556640625Q122.5281769580078,18.09768556640625,123.75215695800782,15.64968556640625Q124.9761569580078,13.11425556640625,127.68645695800781,12.32742556640625Q128.2109569580078,14.163395566406251,128.99785695800782,15.56225556640625Q129.87215695800782,16.96112556640625,130.8338569580078,18.27252556640625Q131.8829569580078,19.49652556640625,132.84465695800782,20.80795556640625Q133.8938569580078,22.11935556640625,134.7680569580078,23.78055556640625Q134.6806569580078,25.44165556640625,134.41835695800782,27.62735556640625Q134.1560569580078,29.81305556640625,133.71895695800782,32.08615556640625Q133.3692569580078,34.35935556640625,132.93205695800782,36.45755556640625Q132.5823569580078,38.55585556640625,132.23265695800782,40.04215556640625Q132.3200569580078,40.479355566406255,132.6698569580078,40.56675556640625Q133.1069569580078,40.654155566406246,132.84465695800782,41.35355556640625Q134.9429569580078,40.829055566406254,137.2160569580078,40.39185556640625Q139.48925695800781,39.95475556640625,141.7623569580078,39.43015556640625Q144.0354569580078,38.90565556640625,146.1337569580078,38.29365556640625Q148.3194569580078,37.59415556640625,150.15545695800782,36.63245556640625Q150.5926569580078,33.22275556640625,151.2920569580078,29.81305556640625Q151.9914569580078,26.40335556640625,151.4668569580078,22.81885556640625Q151.9040569580078,22.46915556640625,152.1663569580078,21.94455556640625Q152.42855695800782,21.41995556640625,153.0405569580078,21.24515556640625Q152.60345695800783,19.58398556640625,152.69085695800783,17.74798556640625Q152.77825695800783,15.911985566406251,153.30285695800782,14.250855566406251Q153.91485695800782,12.58972556640625,154.9640569580078,11.45315556640625Q156.10055695800781,10.22915656640625,157.67425695800782,9.87945556640625Q158.6359569580078,11.278315566406249,159.3354569580078,12.93945556640625Q160.03485695800782,14.513155566406251,160.73425695800782,16.17428556640625Q161.52115695800782,17.74798556640625,162.30795695800782,19.23428556640625Q163.18225695800783,20.633155566406252,164.49365695800782,21.682255566406248Q164.7559569580078,24.21765556640625,164.8433569580078,26.92795556640625Q165.0182569580078,29.63825556640625,165.1056569580078,32.43595556640625Q164.40625695800782,35.758155566406245,163.5319569580078,38.90555556640625Q162.7451569580078,41.96555556640625,162.3954569580078,45.46275556640625Q161.7834569580078,46.16215556640625,161.43365695800782,47.03645556640625Q161.0839569580078,47.91065556640625,160.73425695800782,48.87245556640625Q160.3845569580078,49.74665556640625,159.94745695800782,50.62095556640625Q159.5102569580078,51.40785556640625,158.8982569580078,52.01985556640625Q159.24795695800782,53.06895556640625,158.9856569580078,54.03065556640625Q158.8108569580078,54.90495556640625,159.5102569580078,56.21635556640625Z" fill="#FAF9F9" fill-opacity="1" style="mix-blend-mode:passthrough"/></g><g><path d="M221.85626708984375,15.474796689453125Q221.94366708984376,16.086796689453124,221.85626708984375,16.436496689453126Q221.85626708984375,16.698786689453126,221.76886708984375,16.961056689453123Q221.76886708984375,17.223356689453126,221.76886708984375,17.573056689453125Q221.76886708984375,17.835356689453125,221.94366708984376,18.447356689453123Q220.10776708984375,21.419906689453125,217.65976708984374,22.556506689453123Q215.29916708984376,23.605606689453126,212.50146708984374,24.130206689453125Q209.70376708984375,24.567306689453126,206.73116708984375,25.091906689453126Q203.84606708984376,25.616406689453125,200.96096708984373,27.365006689453125Q199.82436708984375,26.927906689453124,198.86266708984374,27.365006689453125Q197.98836708984373,27.802106689453126,196.23986708984376,27.627306689453125Q195.71526708984373,28.151806689453124,194.92836708984376,28.414106689453124Q194.14156708984376,28.589006689453125,193.35466708984376,28.851306689453125Q193.70436708984374,29.638106689453124,193.61696708984374,30.512406689453126Q193.61696708984374,31.299206689453126,193.87926708984375,31.823806689453125Q196.93926708984375,32.086106689453125,200.61116708984375,31.736406689453126Q204.37066708984375,31.386706689453124,207.95516708984374,31.299206689453126Q208.04256708984374,31.736406689453126,207.86776708984377,31.911206689453124Q207.69286708984376,31.998706689453126,207.78036708984376,32.34840668945313Q208.39236708984376,32.78550668945313,209.00436708984375,33.484906689453126Q209.61636708984375,34.09690668945312,210.22836708984374,34.70890668945313Q210.84026708984373,35.320906689453125,211.45226708984376,35.75810668945313Q212.15176708984376,36.10780668945313,213.02606708984376,36.02030668945312Q213.37576708984375,36.71980668945312,213.46316708984375,37.594006689453124Q213.63796708984376,38.38090668945313,213.28826708984374,39.255206689453125Q211.88946708984375,40.216906689453126,210.49056708984375,41.26600668945312Q209.09176708984376,42.22770668945313,207.51806708984375,43.014606689453124Q206.03176708984375,43.801406689453124,204.28326708984375,44.32600668945312Q202.62206708984374,44.763106689453124,200.52376708984374,44.67570668945312Q200.08666708984376,44.67570668945312,199.82436708984375,44.67570668945312Q199.64956708984374,44.67570668945312,199.29976708984375,44.413406689453126Q198.60036708984376,44.85050668945313,197.28896708984377,44.67570668945312Q196.06496708984375,44.500906689453124,195.36556708984375,44.938006689453125Q194.40386708984374,44.500906689453124,193.00496708984375,44.58830668945313Q191.69356708984375,44.58830668945313,190.64446708984374,44.23860668945313Q189.24556708984375,46.07460668945313,188.10896708984376,48.172806689453125Q186.97246708984375,50.27110668945313,186.09816708984374,52.631706689453125Q189.07076708984374,53.068806689453126,190.99416708984376,52.981406689453124Q193.00496708984375,52.893906689453125,194.75356708984376,52.71910668945313Q196.50216708984374,52.456806689453124,198.33816708984375,52.28200668945313Q200.17406708984376,52.01970668945312,202.97176708984375,52.107106689453126Q204.72036708984376,51.145406689453125,207.08096708984374,50.88310668945312Q209.52886708984374,50.53340668945312,211.53976708984374,49.834006689453126Q212.23916708984376,50.096206689453126,212.76376708984375,50.79570668945313Q213.28836708984375,51.40770668945313,213.72546708984373,52.01970668945312Q214.25006708984375,52.54420668945313,214.77456708984374,52.981406689453124Q215.29916708984376,53.418506689453125,216.08606708984377,53.33110668945312Q216.43576708984375,53.68080668945313,216.52316708984375,54.20540668945313Q216.69806708984373,54.64250668945313,216.78546708984373,55.079706689453126Q216.87286708984374,55.51680668945313,217.04776708984375,55.866506689453125Q217.31006708984376,56.12880668945313,217.83456708984374,56.04130668945312Q216.52316708984375,58.92650668945313,214.77456708984374,60.50020668945312Q213.11346708984377,61.986406689453126,210.92776708984374,62.77330668945312Q208.74206708984374,63.560206689453125,206.03176708984375,63.997306689453126Q203.40896708984374,64.43440668945313,200.17406708984376,65.04640668945314Q199.38726708984376,65.22130668945312,198.86266708984374,64.95900668945313Q198.33806708984375,64.78410668945313,197.63866708984375,64.78410668945313Q195.62776708984376,65.22130668945312,192.83006708984374,65.57100668945313Q190.03236708984375,65.92070668945313,187.14726708984375,65.83330668945312Q184.26216708984376,65.74580668945313,181.63929708984375,65.04640668945314Q179.01644708984375,64.43440668945313,177.35532708984374,62.77330668945312Q176.65589708984376,62.16130668945313,176.39361708984376,61.374406689453124Q176.21874708984376,60.500106689453126,175.25704708984375,60.063006689453125Q175.16962708984374,58.926406689453124,174.90733308984375,57.52760668945312Q174.64505008984375,56.128706689453125,174.38275108984374,54.64250668945313Q174.12046808984374,53.068806689453126,173.94561768984374,51.582506689453126Q173.85820008984376,50.096206689453126,174.12046808984374,48.87220668945312Q174.38275108984374,47.56080668945312,175.16959708984376,46.51170668945313Q176.04388708984374,45.46250668945312,175.78159708984376,44.238506689453125Q176.21873708984376,44.15110668945312,176.30618708984375,43.801406689453124Q176.39359708984375,43.36430668945312,177.00559708984375,43.451706689453125Q177.53016708984376,41.87800668945313,178.14216708984375,40.479106689453126Q178.75416708984375,39.080306689453124,179.36614708984376,37.768906689453125Q180.06556708984374,36.457506689453126,180.67756708984376,35.146006689453124Q181.37699708984374,33.74720668945312,181.98899708984374,32.08600668945313Q180.76499708984375,30.949506689453123,180.15301708984376,29.638006689453125Q179.62843708984374,28.239206689453123,179.36614708984376,26.927806689453124Q179.10386708984376,25.528906689453123,178.92901708984374,24.130106689453125Q178.75416708984375,22.643806689453125,178.31701708984374,21.157496689453126Q179.19129708984374,19.846066689453124,180.41528708984376,19.059236689453126Q181.72671708984376,18.184936689453124,183.21299708984375,17.660366689453124Q184.69926708984374,17.135806689453126,186.44786708984375,16.786076689453125Q188.19636708984376,16.436336689453125,190.11986708984375,15.999206689453125Q193.61696708984374,14.862636689453126,196.32726708984376,14.250636689453124Q199.12496708984375,13.638636689453126,201.74776708984376,13.288936689453125Q204.45806708984375,12.851806689453126,207.34316708984375,12.502076689453125Q210.22836708984374,12.152374689453126,213.90026708984374,11.452941689453125Q214.68716708984374,12.239806689453125,215.38656708984377,12.239806689453125Q215.73626708984375,11.452941689453125,216.17346708984374,11.802673689453124Q216.69796708984376,12.064971689453126,216.61056708984376,11.278106689453125Q217.48486708984376,12.764376689453124,218.79626708984375,13.813536689453125Q220.19516708984375,14.775236689453125,221.85626708984375,15.474796689453125Z" fill="#FAF9F9" fill-opacity="1" style="mix-blend-mode:passthrough"/></g><g><path d="M286.4754229980469,63.12318701171875Q285.6011229980469,63.56028701171875,284.81432299804686,63.90998701171875Q284.1149229980469,64.25968701171875,283.1532229980469,64.25968701171875Q279.7435229980469,61.72428701171875,279.56862299804686,55.42948701171875Q279.48122299804686,49.13468701171875,282.2789229980469,39.430087011718754Q282.71602299804687,39.16778701171875,282.71602299804687,38.38098701171875L281.9292229980469,37.50668701171875Q281.57952299804685,37.50668701171875,281.2297229980469,37.59408701171875Q280.96742299804686,37.68158701171875,280.79262299804685,38.20608701171875Q278.51952299804685,39.86728701171875,275.8092229980469,41.70328701171875Q273.0989229980469,43.45178701171875,270.1264229980469,45.02548701171875Q267.24122299804685,46.51178701171875,264.1813229980469,47.47348701171875Q261.2087229980469,48.43518701171875,258.32362299804686,48.43518701171875Q250.97962299804686,48.43518701171875,247.30762299804687,41.00378701171875L246.60822299804687,39.69238701171875L245.90882299804687,40.82898701171875Q245.64652299804686,41.17868701171875,245.12192299804687,42.31518701171875Q244.59732299804688,43.36438701171875,244.0728229980469,44.76318701171875Q243.54822299804687,46.16208701171875,243.11112299804688,47.64838701171875Q242.76142299804687,49.04718701171875,242.84882299804687,50.09638701171875Q242.06192299804687,50.88318701171875,241.18772299804687,51.93238701171875Q240.31342299804686,52.98148701171875,239.87622299804687,54.29288701171875Q239.70142299804687,54.99238701171875,240.05112299804688,55.60438701171875Q239.87622299804687,56.39118701171875,239.26422299804688,56.82838701171875Q238.91452299804686,57.26548701171875,238.47742299804688,57.70258701171875Q238.12772299804686,58.05238701171875,237.86542299804688,58.48948701171875Q237.69052299804687,58.92658701171875,237.60312299804687,59.36378701171875Q237.60312299804687,59.80088701171875,237.51572299804687,60.23808701171875Q237.51572299804687,60.85008701171875,237.34082299804686,61.37458701171875Q235.85457299804688,64.43458701171875,234.98028299804687,65.30888701171875Q234.10600299804688,66.27058701171876,232.61972299804688,66.27058701171876Q231.92029299804688,66.27058701171876,230.34659299804687,66.00828701171875Q229.21002299804687,64.78428701171876,228.24830299804688,62.68608701171875Q227.37402299804688,60.50038701171875,226.84945699804686,58.05238701171875Q226.41232299804688,55.60438701171875,226.41232299804688,53.15638701171875Q226.49974059804688,50.62098701171875,227.28660599804687,48.78498701171875Q227.28660599804687,48.69758701171875,227.98604299804688,47.03648701171875Q228.68545299804688,45.37528701171875,229.73460299804688,42.75248701171875Q230.8711729980469,40.12968701171875,232.27002299804687,36.98218701171875Q233.66887299804688,33.74738701171875,235.06773299804686,30.77478701171875Q236.4666229980469,27.71478701171875,237.69052299804687,25.179387011718752Q239.00202299804687,22.64398701171875,239.87632299804687,21.33258701171875Q240.57572299804687,20.283487011718748,241.1002229980469,19.40914701171875Q241.71222299804688,18.44744701171875,242.23682299804688,17.57314701171875Q243.81052299804688,14.862887011718751,245.20942299804688,13.11431701171875Q246.69572299804688,11.27831701171875,249.49342299804687,10.22918701171875Q251.41682299804688,11.01605201171875,252.2911229980469,12.06518701171875L252.46592299804686,13.026887011718749Q252.81562299804688,13.90118701171875,253.51512299804688,13.90118701171875Q254.47682299804688,14.16345701171875,255.08882299804688,14.42574701171875Q255.78822299804688,14.60061701171875,256.57502299804685,14.77544701171875Q257.18702299804687,15.47488701171875,257.7116229980469,16.43658701171875Q258.41102299804686,17.485717011718748,259.0230229980469,18.53484701171875Q259.72242299804685,19.49654701171875,260.0721229980469,20.545687011718748Q260.50932299804685,21.50738701171875,260.50932299804685,22.55658701171875Q260.59672299804686,23.60568701171875,260.15962299804687,24.74228701171875L260.2470229980469,25.61648701171875Q260.68412299804686,26.40338701171875,260.4218229980469,27.80218701171875Q260.3344229980469,28.41418701171875,260.3344229980469,29.11368701171875Q260.3344229980469,29.72568701171875,260.50932299804685,30.51248701171875Q262.0830229980469,31.73648701171875,263.3070229980469,31.73648701171875Q264.70582299804687,31.73648701171875,265.84242299804686,31.12448701171875Q267.06642299804685,30.42508701171875,268.11552299804686,29.72568701171875Q268.81502299804686,29.20108701171875,269.5144229980469,28.85138701171875Q270.21382299804685,28.41418701171875,270.91332299804685,28.32678701171875Q272.4870229980469,26.84048701171875,273.7110229980469,25.70388701171875Q275.02242299804686,24.56738701171875,276.42122299804686,23.43078701171875Q279.0441229980469,21.33248701171875,281.49212299804685,18.88451701171875Q283.9401229980469,16.436527011718752,285.42642299804686,12.76452701171875Q286.3006229980469,12.23995701171875,287.2624229980469,12.23995701171875Q288.2241229980469,12.23995701171875,289.2732229980469,12.67709701171875Q290.3224229980469,13.11422701171875,291.2841229980469,13.55138701171875Q291.54642299804686,13.72622701171875,291.72122299804687,13.81365701171875Q291.98352299804685,13.90109701171875,292.1584229980469,13.98852701171875Q292.1584229980469,14.862797011718751,292.85782299804686,15.47479701171875Q293.2075229980469,15.73708701171875,293.2949229980469,15.82449701171875Q293.3823229980469,15.911927011718749,293.5572229980469,15.99935701171875Q294.8687229980469,16.69878701171875,295.2184229980469,17.39822701171875Q295.83042299804686,19.40905701171875,297.4041229980469,20.45818701171875Q297.2292229980469,21.33248701171875,297.4041229980469,22.11928701171875Q297.66642299804687,22.81878701171875,298.01612299804685,23.60558701171875Q298.10352299804686,23.86788701171875,298.19092299804686,24.13018701171875Q298.27832299804686,24.39248701171875,298.45322299804684,24.742187011718748L296.79212299804686,24.56728701171875L297.0544229980469,26.228387011718752Q297.2292229980469,27.45238701171875,296.79212299804686,28.93868701171875Q296.4424229980469,30.42498701171875,295.91782299804686,31.29928701171875Q296.00522299804686,33.572387011718746,296.00522299804686,34.88378701171875Q296.09262299804686,36.10778701171875,295.91782299804686,37.24438701171875Q295.7429229980469,38.29348701171875,295.3932229980469,39.25528701171875Q295.1310229980469,40.21698701171875,294.60642299804687,41.353487011718755Q294.9561229980469,46.94888701171875,293.2949229980469,51.58258701171875Q291.72122299804687,56.12888701171875,289.9727229980469,60.15058701171875Q289.79782299804685,60.58768701171875,289.5355229980469,61.02488701171875Q289.36072299804687,61.46198701171875,289.1858229980469,61.89918701171875Q288.39902299804686,62.16148701171875,287.7870229980469,62.51118701171875Q287.17502299804687,62.77338701171875,286.4754229980469,63.12318701171875Z" fill="#FAF9F9" fill-opacity="1" style="mix-blend-mode:passthrough"/></g><g><path d="M353.8922304199219,15.474796689453125Q353.9796304199219,16.086796689453124,353.8922304199219,16.436496689453126Q353.8922304199219,16.698786689453126,353.80483041992187,16.961056689453123Q353.80483041992187,17.223356689453126,353.80483041992187,17.573056689453125Q353.80483041992187,17.835356689453125,353.9796304199219,18.447356689453123Q352.1437304199219,21.419906689453125,349.69573041992186,22.556506689453123Q347.3351304199219,23.605606689453126,344.53743041992186,24.130206689453125Q341.7397304199219,24.567306689453126,338.7672304199219,25.091906689453126Q335.8820304199219,25.616406689453125,332.99693041992185,27.365006689453125Q331.86033041992187,26.927906689453124,330.89863041992186,27.365006689453125Q330.0244304199219,27.802106689453126,328.2758304199219,27.627306689453125Q327.75123041992185,28.151806689453124,326.9644304199219,28.414106689453124Q326.1775304199219,28.589006689453125,325.3906304199219,28.851306689453125Q325.7404304199219,29.638106689453124,325.65293041992186,30.512406689453126Q325.65293041992186,31.299206689453126,325.9152304199219,31.823806689453125Q328.9752304199219,32.086106689453125,332.64723041992187,31.736406689453126Q336.4066304199219,31.386706689453124,339.9911304199219,31.299206689453126Q340.07863041992186,31.736406689453126,339.9037304199219,31.911206689453124Q339.7289304199219,31.998706689453126,339.8163304199219,32.34840668945313Q340.42833041992185,32.78550668945313,341.0403304199219,33.484906689453126Q341.6523304199219,34.09690668945312,342.26433041992186,34.70890668945313Q342.8763304199219,35.320906689453125,343.48833041992185,35.75810668945313Q344.18783041992185,36.10780668945313,345.0620304199219,36.02030668945312Q345.41173041992187,36.71980668945312,345.4992304199219,37.594006689453124Q345.6740304199219,38.38090668945313,345.32433041992186,39.255206689453125Q343.9254304199219,40.216906689453126,342.52663041992184,41.26600668945312Q341.1277304199219,42.22770668945313,339.5540304199219,43.014606689453124Q338.06783041992185,43.801406689453124,336.3192304199219,44.32600668945312Q334.65813041992186,44.763106689453124,332.55983041992187,44.67570668945312Q332.1227304199219,44.67570668945312,331.8604304199219,44.67570668945312Q331.68553041992186,44.67570668945312,331.3358304199219,44.413406689453126Q330.63643041992185,44.85050668945313,329.32503041992186,44.67570668945312Q328.10103041992187,44.500906689453124,327.4016304199219,44.938006689453125Q326.43983041992186,44.500906689453124,325.04103041992187,44.58830668945313Q323.7296304199219,44.58830668945313,322.6804304199219,44.23860668945313Q321.2816304199219,46.07460668945313,320.14503041992185,48.172806689453125Q319.00843041992186,50.27110668945313,318.1342304199219,52.631706689453125Q321.10673041992186,53.068806689453126,323.0301304199219,52.981406689453124Q325.04103041992187,52.893906689453125,326.7895304199219,52.71910668945313Q328.53813041992186,52.456806689453124,330.37413041992187,52.28200668945313Q332.2101304199219,52.01970668945312,335.0078304199219,52.107106689453126Q336.7563304199219,51.145406689453125,339.11693041992186,50.88310668945312Q341.5649304199219,50.53340668945312,343.57573041992185,49.834006689453126Q344.27523041992185,50.096206689453126,344.79973041992184,50.79570668945313Q345.32433041992186,51.40770668945313,345.7615304199219,52.01970668945312Q346.2860304199219,52.54420668945313,346.8106304199219,52.981406689453124Q347.33523041992186,53.418506689453125,348.1220304199219,53.33110668945312Q348.47173041992187,53.68080668945313,348.55923041992185,54.20540668945313Q348.73403041992185,54.64250668945313,348.8215304199219,55.079706689453126Q348.9089304199219,55.51680668945313,349.08383041992187,55.866506689453125Q349.3461304199219,56.12880668945313,349.8706304199219,56.04130668945312Q348.55923041992185,58.92650668945313,346.81073041992187,60.50020668945312Q345.14953041992186,61.986406689453126,342.96383041992186,62.77330668945312Q340.77813041992187,63.560206689453125,338.0679304199219,63.997306689453126Q335.44503041992186,64.43440668945313,332.21023041992186,65.04640668945314Q331.42333041992185,65.22130668945312,330.8987304199219,64.95900668945313Q330.3742304199219,64.78410668945313,329.6747304199219,64.78410668945313Q327.6639304199219,65.22130668945312,324.86623041992186,65.57100668945313Q322.0685304199219,65.92070668945313,319.1833304199219,65.83330668945312Q316.2982304199219,65.74580668945313,313.6754104199219,65.04640668945314Q311.0525504199219,64.43440668945313,309.39145041992185,62.77330668945312Q308.6920204199219,62.16130668945313,308.4297504199219,61.374406689453124Q308.25488041992185,60.500106689453126,307.2931804199219,60.063006689453125Q307.2057804199219,58.926406689453124,306.94348141992185,57.52760668945312Q306.68118241992187,56.128706689453125,306.41891441992186,54.64250668945313Q306.1566164199219,53.068806689453126,305.98178101992187,51.582506689453126Q305.89434811992186,50.096206689453126,306.1566164199219,48.87220668945312Q306.41891441992186,47.56080668945312,307.20575041992186,46.51170668945313Q308.0800204199219,45.46250668945312,307.8177504199219,44.238506689453125Q308.25488041992185,44.15110668945312,308.34232041992186,43.801406689453124Q308.42972041992186,43.36430668945312,309.04175041992187,43.451706689453125Q309.5663104199219,41.87800668945313,310.1783104199219,40.479106689453126Q310.79031041992187,39.080306689453124,311.4023104199219,37.768906689453125Q312.10175041992187,36.457506689453126,312.71374041992186,35.146006689453124Q313.4131804199219,33.74720668945312,314.02518041992187,32.08600668945313Q312.8011804199219,30.949506689453123,312.18918041992185,29.638006689453125Q311.66461041992187,28.239206689453123,311.4023104199219,26.927806689453124Q311.1400404199219,25.528906689453123,310.96518041992186,24.130106689453125Q310.79034041992185,22.643806689453125,310.3531804199219,21.157496689453126Q311.2274804199219,19.846066689453124,312.45145041992185,19.059236689453126Q313.7628804199219,18.184936689453124,315.2491504199219,17.660366689453124Q316.7354304199219,17.135806689453126,318.48403041992185,16.786076689453125Q320.2325304199219,16.436336689453125,322.1559304199219,15.999206689453125Q325.65313041992187,14.862636689453126,328.36333041992185,14.250636689453124Q331.1610304199219,13.638636689453126,333.7839304199219,13.288936689453125Q336.4941304199219,12.851806689453126,339.37933041992187,12.502076689453125Q342.2644304199219,12.152374689453126,345.93643041992186,11.452941689453125Q346.7232304199219,12.239806689453125,347.4227304199219,12.239806689453125Q347.7724304199219,11.452941689453125,348.20953041992186,11.802673689453124Q348.7341304199219,12.064971689453126,348.6467304199219,11.278106689453125Q349.52093041992185,12.764376689453124,350.8324304199219,13.813536689453125Q352.23123041992187,14.775236689453125,353.8922304199219,15.474796689453125Z" fill="#FAF9F9" fill-opacity="1" style="mix-blend-mode:passthrough"/></g><g><path d="M371.3001802246094,55.60432456054688Q370.3384802246094,59.101424560546874,369.5515802246094,60.93742456054687Q368.85218022460936,62.686024560546876,367.36591022460937,64.60942456054687Q366.22934022460936,64.43462456054687,365.7922102246094,64.87172456054688Q365.3550702246094,65.30892456054687,364.83047022460937,65.65862456054688Q364.04364022460936,65.83342456054687,363.6939102246094,65.65862456054688Q363.34421022460936,65.48372456054688,363.0819102246094,65.22142456054686Q362.8196402246094,65.04662456054687,362.38248022460937,64.78432456054688Q362.0327502246094,64.60952456054687,361.24591022460936,64.60952456054687Q361.0710802246094,63.91002456054687,360.8087802246094,63.29802456054688Q360.6339102246094,62.686024560546876,359.6722102246094,62.86092456054688Q359.84705022460935,62.16152456054687,359.7596102246094,61.724324560546876Q359.6722102246094,61.19982456054687,359.4973402246094,60.850124560546874Q359.40991022460935,60.41292456054688,359.3225102246094,60.06322456054688Q359.23508022460936,59.626024560546874,359.40991022460935,59.014124560546875Q358.9727782246094,59.014124560546875,358.7104802246094,58.40212456054687Q358.4482112246094,57.79012456054687,358.0984802246094,57.17812456054688Q358.36077922460936,55.604424560546875,358.62304722460937,54.20552456054688Q358.88531522460937,52.80662456054687,359.2350502246094,51.582624560546876Q359.6722102246094,50.35862456054687,359.9344802246094,49.134624560546875Q360.19678022460937,47.910724560546875,359.6722102246094,46.59922456054687Q360.02191022460937,46.861524560546876,360.19678022460937,46.51182456054688Q360.3716402246094,46.074724560546876,360.45908022460935,45.462724560546874Q360.54648022460935,44.76332456054688,360.54648022460935,44.151324560546875Q360.54648022460935,43.451824560546875,360.45908022460935,43.014724560546874Q361.3333402246094,40.741624560546875,361.85794022460937,38.38102456054688Q362.4699402246094,35.933024560546876,362.90707022460936,33.572524560546874Q363.4316402246094,31.211924560546876,363.9562102246094,28.938824560546873Q364.4807702246094,26.665624560546874,365.3550702246094,24.742224560546873Q366.3167702246094,24.567424560546876,367.45334022460935,25.004524560546876Q368.67738022460935,25.354224560546875,368.93958022460936,25.966224560546877Q371.2127802246094,24.217624560546874,372.96128022460937,21.769624560546873Q374.7098802246094,19.234224560546878,376.5458802246094,16.873684560546874Q378.3818802246094,14.513124560546874,380.5675802246094,12.677124560546876Q382.8406802246094,10.841125560546875,386.2503802246094,10.491424560546875Q387.9989802246094,11.802854560546875,390.0972802246094,13.201694560546875Q392.2829802246094,14.513124560546874,393.6817802246094,16.698824560546875Q394.3812802246094,17.048554560546876,394.81838022460937,17.485654560546877Q395.3429802246094,17.835384560546874,396.04238022460936,18.272524560546877L396.04238022460936,19.321654560546875Q397.09148022460937,20.283354560546876,397.7034802246094,21.594824560546876Q398.4029802246094,22.818824560546876,398.9274802246094,24.305024560546876Q399.4520802246094,25.703924560546874,399.97668022460937,27.190224560546874Q400.50118022460936,28.589024560546875,401.20068022460936,29.900424560546874Q401.0257802246094,30.337624560546875,401.0257802246094,30.687324560546877Q401.0257802246094,30.949624560546876,401.1131802246094,31.299324560546875Q401.28808022460936,31.649024560546874,401.37548022460936,31.998724560546876Q401.46288022460936,32.348424560546874,401.37548022460936,32.960424560546876Q401.1131802246094,36.807324560546874,398.8400802246094,39.167824560546876Q396.6543802246094,41.528424560546874,393.5069802246094,43.102124560546876Q390.3595802246094,44.588424560546876,386.77498022460935,45.63752456054687Q383.1903802246094,46.68672456054688,380.30528022460936,47.910724560546875Q380.30528022460936,48.26042456054687,380.5675802246094,48.26042456054687Q380.9172802246094,48.26042456054687,380.8298802246094,48.697524560546874Q382.9281802246094,50.00892456054687,384.15218022460937,50.795824560546876Q385.3760802246094,51.582624560546876,386.42528022460937,52.107224560546875Q387.56188022460935,52.631824560546875,388.7858802246094,53.068924560546876Q390.0972802246094,53.418624560546874,392.3703802246094,53.943224560546874Q394.64358022460937,54.46772456054688,395.86758022460936,54.817424560546876Q397.1789802246094,55.07972456054687,398.22808022460936,55.342024560546875Q399.2772802246094,55.516924560546876,400.32638022460935,55.691724560546874Q401.4629802246094,55.77922456054687,403.47378022460936,55.95402456054688Q404.2605802246094,56.74092456054687,404.78518022460935,57.877524560546874Q405.3971802246094,58.92662456054688,405.57208022460935,60.06322456054688Q405.74688022460936,61.112324560546874,405.65948022460935,62.16142456054688Q405.57208022460935,63.12312456054688,405.0474802246094,63.73512456054687Q405.1348802246094,63.997424560546875,405.3971802246094,63.997424560546875Q405.74688022460936,63.91002456054687,406.0965802246094,63.997424560546875Q405.57208022460935,64.34712456054687,405.22238022460937,64.87172456054688Q404.8726802246094,65.39632456054687,404.52288022460937,65.92092456054687Q404.1731802246094,66.44542456054688,403.7360802246094,66.79512456054687Q403.2988802246094,67.23232456054689,402.51208022460935,67.31972456054687Q399.8017802246094,68.36882456054687,395.6926802246094,67.40712456054688Q391.58358022460936,66.53282456054689,385.2886802246094,64.08492456054688Q382.1412802246094,62.86092456054688,380.13048022460936,61.98662456054687Q378.2070802246094,61.02492456054687,376.72078022460937,60.15062456054687Q375.3218802246094,59.18892456054687,374.0979802246094,58.139724560546874Q372.9613802246094,57.09062456054688,371.3001802246094,55.60432456054688ZM383.80238022460935,25.616424560546875Q382.8406802246094,27.015324560546876,381.61668022460935,28.151924560546874Q380.4801802246094,29.288424560546876,379.34358022460935,30.512424560546876Q378.2944802246094,31.649024560546874,377.4201802246094,33.13532456054688Q376.5458802246094,34.534224560546875,376.19618022460935,36.457624560546876Q379.25618022460935,36.107824560546874,382.57838022460936,34.796424560546875Q385.90068022460935,33.39762456054687,388.8732802246094,32.17362456054688Q388.52358022460936,29.463324560546877,386.9498802246094,27.802224560546875Q385.46358022460936,26.141024560546875,383.80238022460935,25.616424560546875Z" fill="#FAF9F9" fill-opacity="1" style="mix-blend-mode:passthrough"/></g><g><path d="M458.2136095214844,57.35293251953125Q457.68900952148437,58.83913251953125,456.63990952148436,60.41293251953125Q455.6782095214844,61.89913251953125,454.2793095214844,63.12313251953125Q452.9679095214844,64.25973251953124,451.3067095214844,65.04663251953124Q449.6456095214844,65.83343251953124,447.8096095214844,65.92093251953125Q446.67300952148435,65.65863251953125,446.23590952148436,65.30893251953125Q445.8862095214844,65.04663251953124,445.44900952148436,64.78433251953125Q445.1868095214844,64.60953251953126,444.92450952148437,64.52203251953125Q444.7496095214844,64.34723251953125,444.5748095214844,64.25973251953124L443.5256095214844,63.82263251953125L443.8753095214844,62.68603251953125Q444.05020952148436,61.98663251953125,443.7879095214844,61.63693251953125Q443.5256095214844,61.19973251953125,442.73880952148437,60.50033251953125Q442.4765095214844,60.23803251953125,442.21420952148435,59.97573251953125Q441.95190952148437,59.71353251953125,441.77710952148436,59.45123251953125L440.2908095214844,57.79003251953125L442.6513095214844,57.17803251953125Q444.8370095214844,56.56603251953125,445.5365095214844,55.60433251953125Q446.32330952148436,54.64263251953125,446.14850952148436,52.36953251953125Q444.39990952148435,52.01983251953125,443.17590952148436,52.28213251953125Q442.03930952148437,52.54433251953125,440.8153095214844,52.89413251953125Q439.24160952148435,53.33123251953125,437.5805095214844,53.68093251953125Q436.0068095214844,53.94323251953125,434.0834095214844,53.94323251953125Q433.3839095214844,53.94323251953125,432.77190952148436,53.94323251953125Q432.1599095214844,53.85583251953125,431.46050952148437,53.76843251953125L430.58620952148436,53.59353251953125Q430.41140952148436,52.63183251953125,430.2365095214844,52.54443251953125Q430.0617095214844,52.36953251953125,429.8868095214844,52.19463251953125Q429.4496095214844,51.75753251953125,428.9251095214844,51.05813251953125Q428.4880095214844,50.27123251953125,428.75020952148435,49.13473251953125Q428.31310952148436,48.34783251953125,428.22570952148436,47.56093251953125Q427.7011095214844,48.61013251953125,427.43880952148436,49.74663251953125L427.0891095214844,50.62093251953125L426.21480952148437,50.79583251953125Q426.04000952148436,50.88323251953125,425.9525095214844,51.23293251953125Q425.8651095214844,51.49523251953125,425.8651095214844,51.67013251953125L425.4280095214844,53.15633251953125Q425.25310952148436,53.33123251953125,425.07830952148436,53.50603251953125Q424.9034095214844,53.59353251953125,424.7286095214844,53.76833251953125Q424.5537095214844,54.55523251953125,424.29140952148435,55.34203251953125Q424.0291095214844,56.12893251953125,423.76690952148437,56.82833251953125Q423.32970952148435,57.96493251953125,422.98000952148436,59.10143251953125Q422.7177095214844,60.15063251953125,422.80520952148436,61.19973251953125L422.4555095214844,62.16143251953125Q422.01830952148435,62.68603251953125,421.49380952148437,63.03573251953125Q420.9692095214844,63.29803251953125,420.4446095214844,63.56023251953125Q420.2698095214844,63.73513251953125,419.9201095214844,63.91003251953125Q419.65780952148435,63.99743251953125,419.48293952148435,64.08483251953125L419.22066952148435,65.04653251953124L418.17153952148436,65.22133251953124Q417.20983952148435,65.39623251953125,416.77267952148435,65.48363251953126Q416.4229695214844,65.57113251953125,415.8984095214844,65.57113251953125L415.0241095214844,65.48363251953126Q414.06240952148437,64.69683251953126,413.5378395214844,64.25963251953125Q413.0132795214844,63.73513251953125,412.3138395214844,63.29793251953125Q411.52697952148435,62.24883251953125,411.43957952148435,61.72423251953125Q411.35216952148437,61.19963251953125,411.26470952148435,60.76253251953125Q411.0898695214844,60.23793251953125,411.0898695214844,59.88823251953125Q411.0024695214844,59.53853251953125,410.8275795214844,59.36363251953125L409.6910095214844,58.31453251953125L410.6527095214844,57.52763251953125L410.7401095214844,56.04143251953125Q412.48867952148436,51.58253251953125,414.4120795214844,47.47343251953125Q416.42293952148435,43.36433251953125,418.52120952148437,39.080332519531254Q419.2206395214844,37.681532519531245,419.83260952148436,36.28263251953125Q420.53210952148436,34.88383251953125,421.2315095214844,33.48493251953125Q421.1441095214844,33.222632519531246,421.1441095214844,32.87293251953125Q421.1441095214844,32.52323251953125,421.3189095214844,32.08613251953125Q422.2806095214844,30.59983251953125,422.89260952148436,29.46323251953125Q423.5046095214844,28.23933251953125,424.11660952148435,27.01533251953125Q424.81610952148435,25.52903251953125,425.5155095214844,24.13013251953125Q426.3024095214844,22.73133251953125,427.4389095214844,21.24503251953125L428.83780952148436,20.633022519531252Q429.1001095214844,20.545592519531247,429.4498095214844,20.45816251953125Q429.79950952148437,20.28332251953125,430.2367095214844,20.28332251953125L431.5481095214844,20.45816251953125Q433.99610952148436,19.32159251953125,435.83210952148437,17.31073251953125Q437.6681095214844,15.21246251953125,439.5915095214844,12.32733251953125L440.46570952148437,11.10333251953125L441.60230952148436,11.80276451953125Q442.03940952148434,12.06503251953125,442.8263095214844,12.32733251953125Q443.6131095214844,12.502192519531249,444.4874095214844,12.76446251953125Q446.06110952148435,13.11416251953125,447.4600095214844,13.55133251953125Q448.8589095214844,13.98846251953125,449.7331095214844,14.86273251953125Q450.25770952148434,16.26159251953125,450.34510952148435,16.96100251953125Q450.43250952148435,17.66043251953125,450.6074095214844,18.359862519531248Q450.86970952148437,19.846162519531248,451.0446095214844,21.332432519531253Q451.30680952148435,22.818732519531252,451.3943095214844,24.65473251953125Q451.8314095214844,26.14103251953125,452.09370952148436,27.62723251953125Q452.4434095214844,29.02613251953125,452.7057095214844,30.51243251953125Q453.14280952148437,32.61063251953125,453.5800095214844,34.62153251953125Q454.0171095214844,36.54493251953125,454.7165095214844,38.293532519531254Q455.4160095214844,38.293532519531254,455.5908095214844,38.38093251953125Q456.0279095214844,38.20613251953125,456.46510952148435,38.118632519531246Q456.9897095214844,38.03123251953125,457.6017095214844,37.94383251953125L458.56340952148435,37.85633251953125L458.9131095214844,38.730632519531255Q459.0005095214844,39.167832519531245,459.7874095214844,39.604932519531246Q460.92390952148435,39.69233251953125,461.44850952148437,40.12953251953125Q461.9731095214844,40.47923251953125,462.4102095214844,40.91633251953125Q462.75990952148436,41.26603251953125,463.1097095214844,41.440932519531245L464.42110952148437,41.96543251953125L463.7217095214844,43.27693251953125Q462.8474095214844,44.85063251953125,461.18630952148436,46.33683251953125Q459.6126095214844,47.73573251953125,457.6017095214844,48.69743251953125Q457.6891095214844,49.22203251953125,457.6891095214844,49.74653251953125Q457.7765095214844,50.18373251953125,457.9514095214844,50.70823251953125Q458.21370952148436,52.19453251953125,458.38850952148437,53.76823251953125Q458.56340952148435,55.34193251953125,458.38850952148437,57.00313251953125L458.2136095214844,57.35293251953125ZM432.9468095214844,42.22783251953125Q435.56970952148436,42.052932519531254,437.6679095214844,41.87813251953125Q439.8536095214844,41.61583251953125,442.4765095214844,41.091232519531246Q441.86450952148436,38.46843251953125,441.1651095214844,35.67073251953125Q440.4656095214844,32.78563251953125,439.67880952148437,29.98793251953125L439.1542095214844,30.86213251953125Q437.40570952148437,32.69813251953125,435.74450952148436,34.971332519531245Q434.1708095214844,37.24443251953125,433.0343095214844,39.25523251953125Q432.50970952148435,40.04213251953125,431.9851095214844,40.82893251953125Q431.4606095214844,41.61583251953125,431.0234095214844,42.40263251953125Q431.54800952148435,42.31523251953125,431.9851095214844,42.31523251953125Q432.50970952148435,42.31523251953125,432.9468095214844,42.22783251953125Z" fill="#FAF9F9" fill-opacity="1" style="mix-blend-mode:passthrough"/></g><g><path d="M469.9386295351562,25.354148681640623Q470.55063353515624,23.518148681640625,471.86206353515627,22.206748681640626Q473.2609235351562,20.895348681640627,474.83462353515625,20.021058681640625Q476.49575353515627,19.059358681640624,478.24432353515624,18.447358681640626Q479.99292353515625,17.835358681640624,481.5666235351562,17.398228681640624Q485.06372353515627,15.911928681640624,488.9980235351562,14.600528681640625Q493.01972353515623,13.201658681640625,497.12882353515624,12.152528681640625Q501.32532353515626,11.103393681640625,505.6968235351562,10.841094981640625Q510.0682235351562,10.491393681640625,514.8767235351562,11.890228681640625Q515.1390235351563,12.764498681640625,515.6636235351563,13.551358681640625Q516.1881235351563,14.338198681640625,516.7127235351562,15.125058681640624Q517.3247235351563,15.911928681640624,517.7618235351563,16.698758681640626Q518.1990235351562,17.398188681640626,518.2864235351562,18.185028681640624Q519.1607235351562,18.971858681640626,519.6853235351563,19.933598681640625Q520.2099235351562,20.807848681640625,519.8601235351563,22.294148681640625Q518.9859235351563,22.993548681640625,518.1116235351562,23.605548681640627Q517.3247235351563,24.130148681640627,516.3631235351562,24.567248681640624Q513.1282235351563,23.780448681640625,509.80592353515624,24.042748681640624Q506.48372353515623,24.304948681640624,503.86082353515627,24.479848681640625Q503.07402353515624,23.692948681640623,501.93742353515626,23.692948681640623Q500.88832353515625,23.692948681640623,499.66432353515626,24.042648681640625Q498.52772353515627,24.392448681640623,497.3037235351562,24.742148681640625Q496.16722353515627,25.091848681640627,495.1180235351562,24.916948681640626Q494.24382353515625,25.616348681640623,492.93232353515623,25.878648681640627Q491.70832353515624,26.053448681640624,490.22212353515624,26.228348681640625Q490.13472353515624,26.665448681640626,490.39692353515625,26.840348681640624Q490.65922353515623,26.927748681640626,490.48432353515625,27.364948681640627Q491.00892353515627,27.976948681640625,491.7958235351563,28.239248681640625Q492.67002353515625,28.501448681640625,493.54432353515625,28.763748681640624Q494.50602353515626,29.026048681640624,495.20552353515626,29.463248681640625Q495.90492353515623,29.812948681640624,496.16722353515627,30.687248681640625Q497.47862353515626,30.687248681640625,498.44032353515627,31.299248681640623Q499.4020235351563,31.911248681640625,500.01402353515624,32.78554868164062Q500.62602353515626,33.65974868164062,500.88832353515625,34.70894868164062Q501.23802353515623,35.67064868164063,501.23802353515623,36.457548681640624Q501.50032353515627,37.15694868164063,501.85002353515625,37.069548681640626Q502.19972353515624,36.98204868164062,502.6368235351563,37.419248681640624Q502.89912353515626,38.55574868164062,503.9482235351563,39.779748681640626Q504.99742353515626,40.91634868164063,505.6094235351562,42.31514868164062Q505.78422353515623,44.500848681640626,505.87162353515623,46.24944868164062Q505.95902353515623,47.91054868164063,505.25962353515627,49.65914868164062Q503.9482235351563,52.89394868164062,501.5877235351563,55.42944868164062Q499.31452353515624,57.964848681640625,496.3420235351563,59.97564868164063Q493.45692353515625,61.899148681640625,490.13462353515627,63.29794868164063Q486.8123235351562,64.69684868164063,483.6649235351563,65.65854868164062Q483.31522353515624,65.57104868164063,482.96552353515625,65.65854868164062Q482.61582353515627,65.74594868164063,482.79062353515627,65.22134868164062Q482.09122353515625,65.83334868164062,481.21692353515624,66.00824868164062Q480.43002353515624,66.18304868164063,479.46832353515623,66.09564868164063Q478.5066235351562,66.09564868164063,477.45749353515623,66.00824868164062Q476.49575353515627,65.92084868164062,475.6214935351563,66.09564868164063Q475.00949353515625,65.48364868164063,474.48492353515627,64.87164868164062Q474.04779353515625,64.34714868164062,473.78549353515626,63.47284868164063Q473.34835353515626,63.47284868164063,473.34835353515626,63.03564868164062Q473.43576353515624,62.59854868164062,473.08606353515626,62.59854868164062Q473.61062353515626,61.724248681640624,473.52322353515626,61.63684868164062Q473.52322353515626,61.462048681640624,473.2609235351562,61.374548681640626Q473.08606353515626,61.28714868164062,472.91122353515624,61.19974868164063Q472.7363635351563,61.02484868164063,472.82382353515624,60.762548681640624Q473.1735235351563,60.06314868164063,473.08609353515624,59.18884868164063Q472.99868353515626,58.22714868164063,472.9112535351563,57.26544868164063Q472.8238535351563,56.30374868164063,472.99868353515626,55.42944868164062Q473.26095353515626,54.555148681640624,474.31012353515627,54.030548681640624Q477.28268353515625,54.38024868164062,479.90552353515625,53.85574868164063Q482.61582353515627,53.243748681640625,484.97632353515627,52.19464868164062Q487.33692353515625,51.14544868164062,489.43522353515624,49.921448681640626Q491.62092353515624,48.69744868164062,493.71912353515626,47.73574868164062Q493.98142353515624,46.94894868164062,494.41862353515626,46.42434868164062Q494.94312353515625,45.899748681640624,495.46772353515627,45.46264868164062Q495.99232353515623,45.02554868164062,496.4294235351563,44.50094868164062Q496.86652353515626,43.97634868164062,497.04142353515624,43.18944868164063Q497.12882353515624,42.577448681640625,496.69172353515626,42.49004868164063Q496.3420235351563,42.315248681640625,496.3420235351563,41.790648681640626L495.38032353515626,41.52834868164062Q493.71912353515626,40.56664868164063,491.62092353515624,39.95464868164062Q489.52262353515624,39.25524868164062,488.03632353515627,38.46834868164062Q487.07462353515626,38.99294868164063,486.20032353515626,38.73064868164062Q485.41342353515626,38.46834868164062,484.10202353515626,38.20614868164063Q481.12952353515624,38.031248681640626,478.33178353515626,37.594148681640625Q475.62152353515626,37.15694868164063,473.08609353515624,36.02044868164063Q472.9112535351563,35.583248681640626,472.64895353515624,35.23354868164063Q472.38665353515626,34.88384868164063,471.68725353515623,35.05874868164062Q471.1626935351562,34.35924868164062,470.63812353515624,33.74724868164063Q470.11355553515625,33.04784868164063,469.67642253515623,32.261048681640624Q469.85125753515626,31.211848681640625,469.93869053515624,30.512448681640624Q470.02609253515624,29.725548681640625,469.41412353515625,29.026148681640624Q469.76385453515627,27.889648681640626,469.93869053515624,27.190148681640625Q470.11355553515625,26.490748681640625,469.9386295351562,25.354148681640623Z" fill="#FAF9F9" fill-opacity="1" style="mix-blend-mode:passthrough"/></g></g></g></svg>